Format : AVI
Format/Info : Audio Video Interleave
File size : 1.41 GiB
Duration : 1h 33mn
Overall bit rate : 2 172 Kbps
Writing library : VirtualDub build 32839/release

Video
ID : 0
Format : MPEG-4 Visual
Format profile : Advanced Simple@L5
Format settings, BVOP : Yes
Format settings, QPel : No
Format settings, GMC : No warppoints
Format settings, Matrix : Custom
Codec ID : XVID
Codec ID/Hint : XviD
Duration : 1h 33mn
Bit rate : 2 034 Kbps
Width : 688 pixels
Height : 304 pixels
Display aspect ratio : 2.25:1
Frame rate : 25.000 fps
Color space : YUV
Chroma subsampling : 4:2:0
Bit depth : 8 bits
Scan type : Progressive
Bits/(Pixel*Frame) : 0.389
Stream size : 1.32 GiB (94%)
Writing library : XviD 1.2.1 (UTC 2008-12-04)

Audio
ID : 1
Format : MPEG Audio
Format version : Version 1
Format profile : Layer 3
Mode : Joint stereo
Mode extension : MS Stereo
Codec ID : 55
Codec ID/Hint : MP3
Duration : 1h 33mn
Bit rate mode : Constant
Bit rate : 128 Kbps
Channel(s) : 2 channels
Sampling rate : 44.1 KHz
Stream size : 85.2 MiB (6%)
Alignment : Split accross interleaves
Interleave, duration : 40 ms (1.00 video frame)
Interleave, preload duration : 500 ms



 
http://www.imdb.com/title/tt0480687/







Users: 5.9/10 (1,639 votes) 24 reviews | Critics: 53 reviews Metascore: 45/100 (based on 34 reviews from Metacritic.com)

A married man is granted the opportunity to have an affair by his wife. Joined in the fun by his best pal, things get a little out of control when both wives start engaging in extramarital activities as well.
Directors:
Bobby Farrelly, Peter Farrelly
Writers:
Pete Jones (screenplay), Peter Farrelly (screenplay), and 3 more credits »
Stars:
Owen Wilson, Jason Sudeikis and Christina Applegate 